<?xml version="1.0" encoding="utf-8"?>
<!-- Generator: Adobe Illustrator 25.4.1, SVG Export Plug-In . SVG Version: 6.00 Build 0)  -->
<svg version="1.1" id="圖層_1" xmlns="http://www.w3.org/2000/svg" xmlns:xlink="http://www.w3.org/1999/xlink" x="0px" y="0px"
	 viewBox="0 0 45.3 45.3" style="enable-background:new 0 0 45.3 45.3;" xml:space="preserve">
<style type="text/css">
	.st0{fill:#F0E9E0;}
	.st1{fill:#A87561;}
</style>
<circle class="st0" cx="22.6" cy="22.6" r="22.6"/>
<path class="st1" d="M30.9,12.4H14.4c-0.9,0-1.8,0.4-2.5,1c-0.7,0.7-1,1.6-1,2.5v11.8c0,0.9,0.4,1.8,1,2.5c0.7,0.7,1.6,1,2.5,1h16.5
	c0.9,0,1.8-0.4,2.5-1c0.7-0.7,1-1.6,1-2.5V16c0-0.9-0.4-1.8-1-2.5C32.7,12.8,31.8,12.4,30.9,12.4z M30.9,14.8l-7.7,5.3
	c-0.2,0.1-0.4,0.2-0.6,0.2s-0.4-0.1-0.6-0.2l-7.7-5.3H30.9z"/>
</svg>
