<?xml version="1.0" encoding="utf-8"?>
<!-- Generator: Adobe Illustrator 25.4.1, SVG Export Plug-In . SVG Version: 6.00 Build 0)  -->
<svg version="1.1" id="圖層_1" xmlns="http://www.w3.org/2000/svg" xmlns:xlink="http://www.w3.org/1999/xlink" x="0px" y="0px"
	 viewBox="0 0 45.3 45.3" style="enable-background:new 0 0 45.3 45.3;" xml:space="preserve">
<style type="text/css">
	.st0{fill:#F0E9E0;}
	.st1{fill:#A87561;}
</style>
<circle class="st0" cx="22.6" cy="22.6" r="22.6"/>
<path class="st1" d="M21.5,37.1c-8.6-12.4-10.2-13.7-10.2-18.3c0-6.3,5.1-11.3,11.3-11.3S34,12.6,34,18.9c0,4.6-1.6,5.8-10.2,18.3
	c-0.1,0.2-0.3,0.3-0.5,0.4c-0.2,0.1-0.4,0.2-0.7,0.2s-0.5-0.1-0.7-0.2C21.8,37.5,21.6,37.3,21.5,37.1L21.5,37.1L21.5,37.1z
	 M22.6,23.6c1.3,0,2.5-0.5,3.3-1.4c0.9-0.9,1.4-2.1,1.4-3.3s-0.5-2.5-1.4-3.3c-0.9-0.9-2.1-1.4-3.3-1.4s-2.5,0.5-3.3,1.4
	c-0.9,0.9-1.4,2.1-1.4,3.3s0.5,2.5,1.4,3.3C20.2,23.1,21.4,23.6,22.6,23.6z"/>
</svg>
