<?xml version="1.0" encoding="utf-8"?>
<!-- Generator: Adobe Illustrator 25.4.1, SVG Export Plug-In . SVG Version: 6.00 Build 0)  -->
<svg version="1.1" id="圖層_1" xmlns="http://www.w3.org/2000/svg" xmlns:xlink="http://www.w3.org/1999/xlink" x="0px" y="0px"
	 viewBox="0 0 45.3 45.3" style="enable-background:new 0 0 45.3 45.3;" xml:space="preserve">
<style type="text/css">
	.st0{fill:#F0E9E0;}
	.st1{fill:#A87561;}
</style>
<circle class="st0" cx="22.6" cy="22.6" r="22.6"/>
<path class="st1" d="M34.3,13.1L31,9.8c-0.2-0.2-0.5-0.4-0.8-0.5S29.5,9,29.2,9c-0.7,0-1.3,0.3-1.8,0.7l-3.6,3.6
	c-0.2,0.2-0.4,0.5-0.5,0.8c-0.1,0.3-0.2,0.6-0.2,1c0,0.7,0.3,1.3,0.7,1.8l2.6,2.6c-0.6,1.3-1.5,2.6-2.5,3.6c-1,1-2.3,1.9-3.6,2.5
	L17.7,23c-0.2-0.2-0.5-0.4-0.8-0.5c-0.3-0.1-0.6-0.2-1-0.2c-0.7,0-1.3,0.3-1.8,0.7l-3.6,3.6c-0.2,0.2-0.4,0.5-0.5,0.8
	s-0.2,0.6-0.2,1c0,0.7,0.3,1.3,0.7,1.8l3.3,3.3c0.8,0.8,1.8,1.2,2.9,1.2c0.2,0,0.4,0,0.7-0.1c4.2-0.7,8.4-2.9,11.7-6.3
	c3.4-3.4,5.6-7.5,6.3-11.7C35.6,15.3,35.2,14,34.3,13.1z"/>
</svg>
