<svg width="27" height="28" viewBox="0 0 27 28" fill="none" xmlns="http://www.w3.org/2000/svg">
<path d="M26.7311 8.4001C26.7311 8.4001 26.4674 6.46963 25.6553 5.62197C24.627 4.50635 23.4773 4.50088 22.95 4.43525C19.1742 4.15088 13.5053 4.15088 13.5053 4.15088H13.4947C13.4947 4.15088 7.82578 4.15088 4.05 4.43525C3.52266 4.50088 2.37305 4.50635 1.34473 5.62197C0.532617 6.46963 0.274219 8.4001 0.274219 8.4001C0.274219 8.4001 0 10.6696 0 12.9337V15.0556C0 17.3196 0.268945 19.5892 0.268945 19.5892C0.268945 19.5892 0.532617 21.5196 1.33945 22.3673C2.36777 23.4829 3.71777 23.4446 4.31895 23.5649C6.48105 23.7782 13.5 23.8438 13.5 23.8438C13.5 23.8438 19.1742 23.8329 22.95 23.554C23.4773 23.4884 24.627 23.4829 25.6553 22.3673C26.4674 21.5196 26.7311 19.5892 26.7311 19.5892C26.7311 19.5892 27 17.3251 27 15.0556V12.9337C27 10.6696 26.7311 8.4001 26.7311 8.4001ZM10.7104 17.6313V9.76182L18.0035 13.7103L10.7104 17.6313Z" fill="white"/>
</svg>
