<svg width="25" height="24" viewBox="0 0 25 24" fill="none" xmlns="http://www.w3.org/2000/svg">
<g clip-path="url(#clip0)">
<path d="M24.2363 7.20005C24.2363 7.20005 24.0019 5.54536 23.28 4.8188C22.366 3.86255 21.3441 3.85786 20.8753 3.80161C17.5191 3.55786 12.48 3.55786 12.48 3.55786H12.4707C12.4707 3.55786 7.43159 3.55786 4.07534 3.80161C3.60659 3.85786 2.58472 3.86255 1.67065 4.8188C0.948779 5.54536 0.719092 7.20005 0.719092 7.20005C0.719092 7.20005 0.475342 9.14536 0.475342 11.086V12.9047C0.475342 14.8454 0.714404 16.7907 0.714404 16.7907C0.714404 16.7907 0.948779 18.4454 1.66597 19.1719C2.58003 20.1282 3.78003 20.0954 4.3144 20.1985C6.23628 20.3813 12.4753 20.4375 12.4753 20.4375C12.4753 20.4375 17.5191 20.4282 20.8753 20.1891C21.3441 20.1329 22.366 20.1282 23.28 19.1719C24.0019 18.4454 24.2363 16.7907 24.2363 16.7907C24.2363 16.7907 24.4753 14.85 24.4753 12.9047V11.086C24.4753 9.14536 24.2363 7.20005 24.2363 7.20005ZM9.99566 15.1125V8.36724L16.4785 11.7516L9.99566 15.1125Z" fill="#312D2C"/>
</g>
<defs>
<clipPath id="clip0">
<rect width="24" height="24" fill="white" transform="translate(0.475342)"/>
</clipPath>
</defs>
</svg>
