<svg width="66" height="61" viewBox="0 0 66 61" fill="none" xmlns="http://www.w3.org/2000/svg">
<path d="M6.43329 36.3697C6.61453 34.5573 8.98236 32.1921 10.0053 30.7802C11.4517 28.7838 12.8887 26.8855 14.768 25.2898C17.3258 23.1181 19.1177 20.2162 21.6144 17.9804C23.1765 16.5815 24.3714 15.1616 26.1456 14.0445C28.2785 12.7016 30.8376 13.1515 33.2732 13.1515C38.5266 13.1515 44.097 13.3808 49.2977 14.1934C51.7111 14.5704 54.3379 14.8245 56.4418 16.0621C57.7979 16.8598 55.4015 19.5039 54.9534 20.0641C52.3952 23.2619 49.8291 26.6693 47.0486 29.6722C44.9513 31.9373 42.9968 34.3359 40.8141 36.5186C39.7388 37.5939 39.2969 37.8581 37.6886 37.8581C30.9923 37.8581 24.3655 38.4534 17.6786 38.4534C15.3689 38.4534 13.0592 38.4534 10.7495 38.4534C9.05409 38.4534 6.13562 38.7071 6.13562 36.6674" stroke="#A62900" stroke-linecap="round"/>
<path d="M6.13564 36.6675C6.13564 43.6655 5.24264 50.516 5.24264 57.5043C5.24264 57.9931 4.9672 59.7756 5.30879 60.1172C5.82116 60.6296 8.69024 60.1834 9.42655 60.1834C12.0449 60.1834 14.6633 60.1834 17.2817 60.1834C22.2068 60.1834 26.6625 58.8959 31.4376 57.9674C34.4214 57.3872 37.6041 56.9032 40.6322 56.6279C42.4121 56.4661 43.9742 55.605 45.7257 55.4207C46.3407 55.3559 47.6499 54.9503 48.0409 54.4615C48.143 54.3339 46.4031 50.7655 46.321 50.2114C45.8673 47.149 44.5514 43.5522 43.1128 40.8349C42.43 39.5452 41.3046 38.5415 40.6653 37.2628" stroke="#A62900" stroke-linecap="round"/>
<path d="M56.7394 16.7236C56.8454 17.6779 58.0433 18.9088 58.5254 19.7003C59.5506 21.3832 60.6604 22.9978 61.7833 24.6119C62.5557 25.7223 63.9422 27.1287 64.4127 28.3989C64.9596 29.8755 65.0378 29.6053 64.4788 30.8629C63.5446 32.9649 62.305 34.9744 61.3533 37.0975C59.3264 41.6191 56.7687 46.1449 54.1927 50.3603C53.0712 52.1955 50.7898 56.016 48.4047 56.016" stroke="#A62900" stroke-linecap="round"/>
<path d="M23.9911 19.4614H28.3186" stroke="#A62900" stroke-linecap="round"/>
<path d="M23.8989 19.3694C23.4091 19.8102 23.0686 20.188 22.6815 20.73C22.1966 21.4088 21.5914 21.9454 21.1572 22.6636C20.8177 23.2249 20.6178 23.6799 20.4206 24.3209C20.1401 25.2324 22.3813 24.8892 22.794 24.8938C23.8773 24.9058 24.9405 25.17 26.0166 25.17" stroke="#A62900" stroke-linecap="round"/>
<path d="M21.7812 21.8552C21.8413 21.375 25.2962 22.0393 25.7404 22.0393" stroke="#A62900" stroke-linecap="round"/>
<path d="M36.3288 20.6583C35.5444 20.5798 34.7457 20.1527 34.027 19.85C33.2407 19.519 31.9011 19.9595 31.4489 20.6378C31.3335 20.811 30.9456 21.3186 31.1931 21.4869C31.4703 21.6754 31.862 21.797 32.1855 21.8757C32.9002 22.0495 33.5637 22.2725 34.2418 22.5713C34.5033 22.6866 35.0946 22.9738 35.2035 23.2568C35.5017 24.0321 35.3374 24.306 34.8556 24.9653C34.3418 25.6683 33.2508 25.6302 32.4822 25.6302C31.8978 25.6302 30.6156 25.6035 30.2724 24.9857C30.1593 24.7821 29.4874 24.1571 29.2391 24.1571" stroke="#A62900" stroke-linecap="round"/>
<path d="M42.682 22.2237C42.5898 21.8085 41.7398 21.3422 41.347 21.3081C40.8442 21.2643 40.1424 21.0355 39.6896 21.349C38.7459 22.0024 38.1382 23.2032 37.9147 24.3209C37.8483 24.6529 37.6003 25.6274 37.9914 25.8555C38.6605 26.2458 39.4908 26.2111 40.2421 26.1777C41.0025 26.1439 41.7355 26.0773 42.4058 25.7225C42.7522 25.5391 43.1982 25.2621 43.6028 25.2621" stroke="#A62900" stroke-linecap="round"/>
<path d="M1.36397 12.223C2.52605 13.3851 3.74932 14.7893 5.00362 15.8222C5.58069 16.2975 6.08646 16.9436 6.74256 17.3185C6.85278 17.3815 7.18741 17.8774 7.18741 17.5005C7.18741 17.0364 6.89995 16.3817 6.73245 15.9536C6.39189 15.0833 5.98546 14.3317 5.59001 13.4969C5.29591 12.876 4.22633 10.2212 3.63875 10.2212C3.07867 10.2212 2.40035 11.0979 2.26377 11.576C2.21503 11.7465 1.20436 12.1208 1 12.223" stroke="#A62900" stroke-linecap="round"/>
<path d="M7.18737 10.4032C7.09671 8.77144 5.67203 6.7222 4.59917 5.53014C4.07869 4.95183 7.04101 5.211 7.55133 4.98419C9.1274 4.28372 7.7785 7.08373 7.59177 7.71393C7.31444 8.64994 7.36935 9.60078 7.36935 10.5852" stroke="#A62900" stroke-linecap="round"/>
<path d="M15.1947 10.5853C14.3505 8.89701 13.9957 6.9615 13.0917 5.31794C12.6929 4.59279 12.3697 3.86371 11.9999 3.12403C11.7998 2.72401 11.191 2.13269 11.191 1.66817C11.191 1.36292 15.8998 0.735541 15.9226 1.12222C15.9694 1.91748 15.6672 2.62541 15.5485 3.39701C15.3759 4.51915 15.3766 5.6182 15.3766 6.76369C15.3766 8.15889 15.3766 9.55409 15.3766 10.9493" stroke="#A62900" stroke-linecap="round"/>
</svg>
