<svg width="325" height="347" viewBox="0 0 325 347" fill="none" xmlns="http://www.w3.org/2000/svg">
    <defs>
        <filter id="handDrawFilter">
            <feTurbulence type="turbulence" baseFrequency="0.1 0.01" numOctaves="1" seed="1" result="turbulence">
                <animate attributeName="seed"
                    values="1;15;1" keyTimes="0;.5;1" begin="0s" dur="5s"
                    repeatCount="indefinite"></animate>
            </feTurbulence>
            <feDisplacementMap xChannelSelector="R" yChannelSelector="G" scale="10" in="SourceGraphic" in2="turbulence"></feDisplacementMap>
        </filter>
    </defs>
    <path filter="url(#handDrawFilter)" fill-rule="evenodd" clip-rule="evenodd" d="M3.80641 163.581C2.09363 191.222 9.55875 216.879 12.2542 226.143C12.6241 227.415 12.9042 228.377 13.0584 228.994C19.6046 255.17 37.301 288.978 66.2966 309.812L66.5885 310.021C80.2755 319.857 112.544 343.046 152.709 346.696C175.469 348.764 196.737 340.149 211.55 324.985C228.048 326.846 245.268 323.117 260.165 313.189C286.129 295.885 300.466 270.08 308.101 252.634C315.031 236.8 325 212.169 325 181.305C325 164.429 323.358 148.326 318.397 129.989C317.857 127.995 317.694 127.13 317.376 125.446C317.031 123.622 316.505 120.838 315.124 114.618C313.389 106.806 309.992 92.6813 302.385 78.3173C293.639 61.8028 281.231 48.3316 272.937 40.3859C272.877 40.3231 272.526 39.959 271.553 38.9177C271.479 38.8386 271.397 38.7506 271.308 38.6543C270.114 37.3746 267.555 34.631 264.663 31.8606C257.855 25.3371 246.034 15.4383 228.461 9.29009C221.306 6.7864 214.072 4.86938 206.845 3.44554C201.169 2.17981 195.599 1.39042 190.177 0.988345C155.641 -2.47609 122.803 3.84425 101.223 9.47883C77.9455 15.5568 48.6866 27.2179 25.1543 56.9129C15.3015 69.3459 7.50588 83.799 3.33357 100.745C-0.646932 116.912 -0.357391 131.513 0.624433 142.555C1.29616 150.109 2.43956 157.131 3.80641 163.581Z" fill="#1E1E1E"/>
</svg>
