<svg width="24" height="24" viewBox="0 0 24 24" fill="none" xmlns="http://www.w3.org/2000/svg">
<path d="M20 12C20 16.4183 16.4183 20 12 20C7.58172 20 4 16.4183 4 12C4 7.58172 7.58172 4 12 4C16.4183 4 20 7.58172 20 12Z" fill="#EFEFEF"/>
<path fill-rule="evenodd" clip-rule="evenodd" d="M4.00001 12C4.00001 16.4072 7.61851 20 12.1072 20C16.5958 20 20.2143 16.4072 20.2143 12C20.2143 7.59285 16.5958 4 12.1072 4C7.61851 4 4.00001 7.59285 4.00001 12ZM3.00001 12C3.00001 16.9706 7.07742 21 12.1072 21C17.1369 21 21.2143 16.9706 21.2143 12C21.2143 7.02944 17.1369 3 12.1072 3C7.07742 3 3.00001 7.02944 3.00001 12Z" fill="#4C6899"/>
<path d="M12.1072 15C10.3911 15 9.00001 13.6569 9.00001 12C9.00001 10.3431 10.3911 9 12.1072 9C13.8232 9 15.2143 10.3431 15.2143 12C15.2143 13.6569 13.8232 15 12.1072 15Z" fill="#4C6899"/>
</svg>
