<svg width="326" height="363" viewBox="0 0 326 363" fill="none" xmlns="http://www.w3.org/2000/svg">
    <defs>
        <filter id="handDrawFilter">
            <feTurbulence type="turbulence" baseFrequency="0.1 0.01" numOctaves="4" seed="1" result="turbulence">
                <animate attributeName="seed"
                    values="1;15;1" keyTimes="0;.5;1" begin="0s" dur="5s"
                    repeatCount="indefinite"></animate>
            </feTurbulence>
            <feDisplacementMap xChannelSelector="R" yChannelSelector="G" scale="10" in="SourceGraphic" in2="turbulence"></feDisplacementMap>
        </filter>
    </defs>
    <path fill-rule="evenodd" filter="url(#handDrawFilter)"
    clip-rule="evenodd" d="M235.345 1.18244C207.538 -4.84862 180.103 12.7841 174.066 40.5663C172.631 47.17 172.535 53.7527 173.594 60.0323C166.855 56.3741 158.504 53.1183 148.798 51.9756C128.66 49.6048 105.767 54.4155 88.5877 72.5274C73.813 88.1039 69.9368 106.79 68.7355 117.909C68.3771 121.226 68.1906 124.552 68.1404 127.841C58.9913 124.72 48.8602 124.132 38.7936 126.699C11.2225 133.729 -5.424 161.759 1.61255 189.305C11.6501 228.6 37.3689 268.818 57.7555 294.628C59.7349 297.134 61.4533 299.597 64.008 303.258L64.0126 303.264C65.2798 305.08 66.7528 307.191 68.5652 309.748C73.1408 316.203 79.5901 325.017 87.5809 333.21C104.575 350.635 134.565 370.545 175.468 360.116C175.774 360.037 176.133 359.948 176.54 359.847C182.489 358.368 198.788 354.315 212.502 344.847C220.989 338.988 231.108 329.421 237.17 314.722C243.408 299.599 243.181 284.316 239.82 271.158C239.545 270.082 239.235 268.82 238.887 267.404C237.509 261.798 235.538 253.779 232.825 245.355C240.891 246.197 249.218 246.131 257.428 244.976C276.711 242.262 305.239 231.469 318.97 200.422C330.898 173.454 324.788 145.777 321.318 132.316C319.241 124.257 316.705 116.532 314.808 110.763C312.657 104.221 311.458 100.549 310.729 97.6946C309.105 91.3369 306.394 85.6347 305.391 83.5253L305.361 83.4623C303.819 80.2191 302.017 76.7498 300.206 73.3983C296.551 66.6345 292.04 58.8436 287.551 51.4676C283.111 44.1736 278.254 36.5663 273.896 30.3653C271.807 27.3925 269.196 23.8288 266.405 20.5602C265.082 19.01 262.844 16.4878 259.944 13.8905C259.92 13.8691 259.883 13.8353 259.834 13.7899L259.83 13.7856C258.582 12.6329 249.518 4.25635 235.345 1.18244ZM162.64 262.539C162.648 262.545 162.653 262.548 162.653 262.548C162.653 262.548 162.64 262.538 162.614 262.519C162.625 262.527 162.634 262.534 162.64 262.539Z" fill="#1E1E1E"/>
</svg>