<svg width="378" height="374" viewBox="0 0 378 374" fill="none" xmlns="http://www.w3.org/2000/svg">
    <defs>
        <filter id="handDrawFilter">
            <feTurbulence type="turbulence" baseFrequency="0.1 0.01" numOctaves="1" seed="1" result="turbulence">
                <animate attributeName="seed"
                    values="1;15;1" keyTimes="0;.5;1" begin="0s" dur="5s"
                    repeatCount="indefinite"></animate>
            </feTurbulence>
            <feDisplacementMap xChannelSelector="R" yChannelSelector="G" scale="10" in="SourceGraphic" in2="turbulence"></feDisplacementMap>
        </filter>
    </defs>
    <path filter="url(#handDrawFilter)" fill-rule="evenodd" clip-rule="evenodd" d="M88.8873 16.1307C89.4958 15.4485 90.1362 14.7681 90.8091 14.0958C94.0532 10.8543 102.638 3.09937 116.48 0.828211C133.668 -1.99209 148.045 5.16581 156.727 13.8639C157.479 14.6178 158.184 15.3775 158.844 16.1356C164.551 13.1794 172.771 10.4198 182.905 11.1027C188.36 11.4703 193.13 12.6576 197.286 14.3521C209.092 9.45522 220.889 10.6268 228.932 13.311C229.173 13.2203 229.416 13.131 229.661 13.0432C236.866 10.4654 245.399 9.47456 254.296 11.3198C263.065 3.93383 276.301 -1.7456 292.302 1.43701C304.822 3.92715 312.683 10.9256 315.926 14.2616C320.566 12.6443 325.552 11.7653 330.743 11.7653C355.596 11.7653 375.743 31.9125 375.743 56.7653V109.61C375.743 114.901 376.01 117.347 376.43 121.193C376.713 123.785 377.066 127.013 377.452 132.175C378.336 143.965 378.152 156.812 375.213 175.792C371.134 202.128 371.113 221.347 372.173 241.78C372.455 247.212 372.846 253.084 373.267 259.398C374.399 276.362 375.743 296.517 375.743 319.905C375.743 337.105 366.518 348.178 362.406 352.389C357.82 357.085 353.175 359.903 350.679 361.3C345.434 364.235 340.201 366.053 336.803 367.119C329.405 369.439 320.947 371.159 313.263 372.232C305.889 373.262 296.342 374.109 287.276 373.408C283.526 373.118 276.307 372.346 268.547 369.176C266.216 369.63 263.762 369.914 261.189 369.988C249.726 370.317 240.994 366.305 235.753 362.983C231.656 365.724 226.434 368.251 220.063 369.6C209.847 371.763 200.393 370.106 192.986 366.927C190.757 365.97 188.733 364.888 186.904 363.746C180.512 367.542 171.503 370.822 160.164 369.846C155.401 369.437 151.184 368.352 147.491 366.894C137.221 370.367 126.644 369.839 117.418 366.406C111.274 369.058 102.224 371.448 91.3807 369.695C85.6938 368.776 80.7221 366.918 76.4508 364.558C70.0698 368.028 62.7556 370 54.9808 370C30.128 370 9.98083 349.853 9.98083 325C9.98083 323.299 9.60614 320.232 8.00309 313.433C7.76449 312.421 7.46239 311.193 7.11993 309.802C5.72736 304.145 3.66742 295.777 2.49545 288.145C0.652084 276.141 0.242882 264.095 0.242882 254.161C0.242882 244.001 1.67085 234.766 2.93339 227.783C3.64149 223.867 4.17688 221.176 4.63207 218.889C4.98988 217.09 5.29813 215.541 5.60175 213.842C5.4993 211.741 5.3116 208.798 5.04203 205.054C4.58789 198.746 3.96993 191.088 3.30967 182.906C3.13531 180.745 2.95801 178.548 2.77999 176.329C1.94607 165.936 1.09759 155.086 0.570587 146.383C0.309974 142.08 0.0976636 137.822 0.026531 134.198C-0.00832011 132.422 -0.0209162 130.285 0.0656202 128.12C0.0670736 128.084 0.0687215 128.038 0.0707013 127.982C0.112598 126.811 0.3032 121.481 1.96831 115.642C2.16781 114.943 2.53684 113.693 3.13985 112.095C2.65628 105.957 2.44602 100.575 2.24552 95.4426C2.17329 93.5937 2.10233 91.7773 2.02032 89.9696C1.84656 86.1399 1.81716 80.6306 2.94312 74.6054C3.01243 74.2345 3.08981 73.8413 3.17659 73.4276C-0.189553 61.0609 1.28071 47.6972 7.91578 36.0979C14.3622 24.8285 23.5907 18.801 29.2113 15.8563C40.4466 9.96993 52.5578 8.33433 62.0359 8.68598C67.108 8.87416 73.8699 9.70603 81.0424 12.4129C83.1991 13.2268 85.9247 14.4177 88.8873 16.1307ZM59.2983 35.6139C59.4161 35.6339 59.4972 35.648 59.5335 35.6543C59.5439 35.6561 59.5506 35.6573 59.5535 35.6577C60.0165 35.7362 59.8716 35.6945 59.2983 35.6139ZM0.666504 133.249C0.666637 133.247 0.671066 133.292 0.67942 133.391C0.670551 133.301 0.66637 133.252 0.666504 133.249Z" fill="black"/>
</svg>
